<?xml version="1.0" encoding="UTF-8"?><svg id="_图层_2" xmlns="http://www.w3.org/2000/svg" viewBox="0 0 236.43 72.57"><g id="_图层_1-2"><g><g><path d="M28.04,55.18c.42,0,4.17-1.95,5.01-2.36,.14-.14-.14,.14,0,0,.83-.56,3.2-1.25,4.31-1.67l3.2-.7c3.48-.7,4.17,.14,4.17-.28-.7-4.31-1.95-5.7-5.84-7.09-4.03-1.53-10.15-3.34-12.52-6.95-.14-.28-.28-.56-.42-.7h0c-1.53,2.36-3.89,4.31-7.09,6.54-1.53,.83-6.12,1.11-5.28,3.34,1.67,4.45,4.17,10.85,7.65,11.4,.28,0,3.62-.14,6.54-1.25" fill="#2ac989" fill-rule="evenodd"/><path d="M48.62,37.66c-4.73-3.34-15.16,1.39-21.14-6.68-.14-2.64-1.39-3.76-4.45-4.59-.14,2.36,.28,3.76,1.39,4.73-1.53-.28-2.78,.42-4.45,2.09,2.5,1.67,4.17,1.81,6.12,.28,3.2,8.34,18.08,3.62,19.33,16.69,5.56-5.15,5.42-5.42,3.2-12.52" fill="#1b5baf" fill-rule="evenodd"/><path d="M33.46,.11c14.74-1.11,27.68,6.54,34.35,18.36,0,.14-.14,.14-.14,.14-6.26-8.76-16.83-14.33-28.51-13.35-15.44,1.25-27.95,13.77-29.07,29.21-.7,8.62,2.23,16.69,7.23,22.67,.42,.56,2.92,1.81,3.48,1.81,10.71,.14,13.77-7.79,26.98-6.26,8.76,1.11,5.84,3.48,1.81,4.45-2.5,.56-7.37,.7-7.09,1.25,.83,1.67,16.41,4.45,22.81-5.42,1.67-2.64,2.92,.83,1.95,3.2-1.53,3.62-5.15,7.23-10.57,10.01-5.84,4.03-12.8,6.4-20.44,6.4C15.38,72.57-1.31,54.9,.08,33.76,1.33,15.82,15.66,1.5,33.46,.11Z" fill="#1b5baf"/><path d="M58.49,16.52c-.14-1.25-.83-1.81-2.09-1.67-2.36,.42-4.45,.7-6.12,.56-1.53,0-1.95-1.39-3.2-2.36-1.67-1.39-5.15-1.11-7.09-.7-5.42,.97-13.07,5.56-10.85,12.1,.83,1.95,2.23,3.48,4.31,4.31,1.67,.7,5.42,1.67,6.26-.7,.14-1.39-1.25-2.92-1.67-4.45-.56-1.53-.42-3.06,.14-4.31,.14,1.81,.42,3.2,.97,4.17,.83,1.67,3.06,2.92,2.09,5.28-1.39,3.06-5.28,2.64-7.93,1.53-2.78-1.11-4.45-2.92-5.29-5.7,0,1.39,0,2.64-.14,3.76,.28,.7,.56,1.39,.7,2.36,2.5,3.2,5.84,4.03,9.87,4.31,2.92,0,6.54-.28,9.18,.7-.14-1.11-.42-2.09-.7-3.06-.7-2.36,.42-4.17,2.92-5.56,.97-.42,2.09-.83,3.34-1.25,4.87-1.39,6.26-4.45,5.28-9.32Zm-13.49,2.64c-.97-1.67,1.53-1.25,1.53-1.11l-1.53,1.11Z" fill="#2ac989" fill-rule="evenodd"/></g><g><path d="M77.45,25.24c0-.56,.03-1.08,.1-1.55,.07-.47,.17-.99,.3-1.54h3.08v1.27c0,.7,.04,1.33,.13,1.87s.23,1,.43,1.37,.46,.65,.8,.84c.33,.19,.74,.28,1.22,.28,.76,0,1.33-.21,1.73-.62,.4-.41,.6-1.02,.6-1.81,0-.41-.03-.78-.08-1.12s-.15-.68-.29-1.02c-.14-.34-.33-.69-.56-1.06s-.53-.79-.9-1.25l-4.13-4.91c-.73-.94-1.3-1.88-1.7-2.84-.4-.95-.6-1.97-.6-3.05,0-.87,.13-1.66,.41-2.39s.66-1.35,1.17-1.88c.51-.53,1.14-.93,1.89-1.22,.75-.29,1.6-.44,2.55-.44,1.15,0,2.11,.16,2.88,.49,.77,.33,1.38,.75,1.84,1.29,.46,.53,.78,1.12,.97,1.78,.19,.66,.28,1.32,.28,1.98,0,.56-.04,1.08-.13,1.55-.09,.47-.18,1-.3,1.57h-3.06v-1.24c0-1.39-.2-2.45-.6-3.19s-1.05-1.11-1.94-1.11c-.74,0-1.3,.21-1.67,.62-.37,.41-.55,.97-.55,1.66,0,.37,.03,.7,.08,1,.06,.3,.14,.57,.25,.82,.11,.25,.24,.49,.39,.73,.15,.23,.33,.48,.52,.73l4.61,5.57c.84,1.09,1.48,2.14,1.93,3.14,.45,1,.68,2.07,.68,3.19,0,.93-.15,1.76-.44,2.51-.29,.74-.71,1.38-1.25,1.9s-1.19,.92-1.96,1.2-1.63,.42-2.59,.42c-1.18,0-2.17-.16-2.94-.48-.78-.32-1.4-.73-1.87-1.25s-.79-1.11-.98-1.77c-.19-.66-.28-1.34-.28-2.04Z" fill="#2ac989"/><path d="M93,4.4h3.99V23.56c0,.82,.04,1.49,.12,2.03,.08,.54,.21,.97,.39,1.29s.41,.55,.69,.69,.62,.21,1,.21,.73-.07,1.02-.21c.29-.14,.53-.37,.72-.69s.33-.75,.43-1.29c.1-.54,.15-1.22,.15-2.03V4.4h3.95V22.51c0,1.28-.1,2.37-.31,3.27s-.47,1.67-.81,2.28c-.34,.61-.72,1.1-1.16,1.45-.43,.36-.88,.63-1.35,.82-.47,.19-.93,.31-1.38,.36-.46,.05-.88,.08-1.26,.08s-.79-.03-1.25-.08-.91-.17-1.37-.36c-.46-.19-.9-.46-1.33-.82-.43-.36-.81-.84-1.15-1.45-.34-.61-.61-1.37-.8-2.27s-.3-2-.3-3.28V4.4Z" fill="#2ac989"/><path d="M109.83,4.4h3.96c.5,0,1.05,.02,1.65,.07,.6,.05,1.19,.15,1.79,.32,.6,.17,1.17,.43,1.73,.77s1.05,.82,1.48,1.42c.43,.6,.77,1.34,1.03,2.24,.26,.9,.39,1.99,.39,3.28v.92c0,1.4-.12,2.59-.36,3.59-.24,.99-.56,1.83-.96,2.51-.4,.68-.86,1.22-1.38,1.63-.53,.41-1.07,.72-1.64,.93-.57,.21-1.14,.35-1.71,.41-.58,.07-1.12,.1-1.63,.1h-.38v7.96h-3.96V4.4Zm4.16,15.27c.71,0,1.32-.1,1.81-.31,.49-.21,.88-.54,1.17-.98,.29-.44,.5-1.01,.63-1.71,.13-.7,.19-1.54,.19-2.52v-2.36c0-.78-.06-1.45-.17-2.01-.11-.57-.32-1.03-.61-1.4s-.68-.64-1.17-.82c-.49-.18-1.11-.27-1.85-.27h-.2v12.38h.2Z" fill="#2ac989"/><path d="M124.86,4.4h3.96c.5,0,1.05,.02,1.65,.07,.6,.05,1.19,.15,1.79,.32,.6,.17,1.17,.43,1.73,.77s1.05,.82,1.48,1.42c.43,.6,.77,1.34,1.03,2.24,.26,.9,.39,1.99,.39,3.28v.92c0,1.4-.12,2.59-.36,3.59-.24,.99-.56,1.83-.96,2.51-.4,.68-.86,1.22-1.38,1.63-.53,.41-1.07,.72-1.64,.93-.57,.21-1.14,.35-1.71,.41-.58,.07-1.12,.1-1.63,.1h-.38v7.96h-3.96V4.4Zm4.16,15.27c.71,0,1.32-.1,1.81-.31,.49-.21,.88-.54,1.17-.98,.29-.44,.5-1.01,.63-1.71,.13-.7,.19-1.54,.19-2.52v-2.36c0-.78-.06-1.45-.17-2.01-.11-.57-.32-1.03-.61-1.4s-.68-.64-1.17-.82c-.49-.18-1.11-.27-1.85-.27h-.2v12.38h.2Z" fill="#2ac989"/><path d="M145.67,30.77c-.42,0-.87-.03-1.36-.1s-.98-.21-1.45-.42c-.48-.21-.94-.52-1.38-.91s-.84-.91-1.18-1.55c-.34-.64-.61-1.44-.82-2.38-.2-.94-.31-2.07-.31-3.37V12.77c0-1.32,.1-2.44,.31-3.37,.21-.93,.49-1.72,.83-2.36,.35-.64,.74-1.15,1.19-1.52,.44-.38,.91-.67,1.39-.86s.97-.33,1.45-.39c.48-.06,.92-.09,1.33-.09s.82,.03,1.29,.08c.47,.06,.95,.18,1.42,.37,.48,.19,.94,.47,1.39,.84,.45,.37,.85,.88,1.19,1.51s.63,1.43,.83,2.37c.21,.94,.31,2.08,.31,3.42v9.26c0,1.3-.11,2.41-.32,3.34-.22,.93-.5,1.72-.84,2.37s-.75,1.17-1.2,1.56c-.45,.39-.92,.7-1.39,.92-.48,.22-.95,.36-1.42,.44s-.89,.11-1.27,.11Zm0-2.98c.39,0,.73-.07,1.02-.2s.53-.36,.72-.69c.19-.33,.33-.76,.43-1.29s.15-1.21,.15-2.03V11.69c0-.84-.05-1.53-.15-2.1-.1-.56-.24-1.01-.43-1.35s-.43-.58-.72-.73-.63-.21-1.02-.21-.74,.07-1.04,.21-.54,.39-.73,.73-.34,.79-.44,1.35c-.1,.56-.14,1.26-.14,2.1v11.89c0,.82,.05,1.49,.14,2.03,.1,.54,.24,.97,.44,1.29,.19,.33,.44,.56,.73,.69s.64,.2,1.04,.2Z" fill="#2ac989"/><path d="M155.86,4.4h4.3c.49,0,1.03,.02,1.62,.06,.59,.04,1.17,.14,1.76,.3,.59,.16,1.15,.4,1.7,.71,.55,.32,1.03,.75,1.45,1.3s.76,1.24,1.02,2.07c.26,.83,.38,1.84,.38,3.02v.66c0,1.99-.29,3.61-.86,4.86-.57,1.25-1.41,2.15-2.52,2.7l4.19,10.45h-4.19l-3.48-9.78h-1.48v9.78h-3.89V4.4Zm4.48,13.5c.69,0,1.28-.08,1.76-.23s.87-.41,1.16-.77c.29-.36,.51-.84,.64-1.44,.13-.6,.2-1.33,.2-2.21v-2.07c0-.67-.06-1.25-.18-1.74-.12-.49-.33-.89-.62-1.21-.29-.32-.68-.55-1.15-.7-.48-.15-1.08-.23-1.81-.23h-.6v10.61h.6Z" fill="#2ac989"/><path d="M174.32,7.52h-4.21v-3.12h12.37v3.12h-4.19V30.54h-3.96V7.52Z" fill="#2ac989"/><path d="M191.86,4.4h4.12c.62,0,1.27,.02,1.93,.05,.67,.04,1.32,.15,1.96,.33,.64,.18,1.24,.47,1.81,.85,.57,.38,1.06,.92,1.49,1.61,.43,.69,.77,1.56,1.02,2.6,.25,1.05,.38,2.32,.38,3.83v7.59c0,1.51-.13,2.79-.38,3.84s-.59,1.92-1.02,2.6c-.43,.68-.93,1.22-1.49,1.6-.57,.38-1.17,.67-1.81,.85-.64,.18-1.29,.29-1.96,.33-.67,.04-1.31,.05-1.93,.05h-4.12V4.4Zm4.97,23.37c.71,0,1.3-.09,1.77-.28,.47-.18,.83-.51,1.1-.97,.27-.46,.46-1.1,.56-1.9s.15-1.81,.15-3.04V13.48c0-1.22-.05-2.24-.15-3.04-.1-.8-.29-1.43-.56-1.9-.27-.46-.64-.79-1.1-.97-.46-.18-1.05-.28-1.77-.28h-1.01V27.77h1.01Z" fill="#2ac989"/><path d="M213.87,30.77c-.42,0-.87-.03-1.36-.1s-.98-.21-1.45-.42c-.48-.21-.94-.52-1.38-.91s-.84-.91-1.18-1.55c-.34-.64-.61-1.44-.82-2.38-.2-.94-.31-2.07-.31-3.37V12.77c0-1.32,.1-2.44,.31-3.37,.21-.93,.49-1.72,.83-2.36,.35-.64,.74-1.15,1.19-1.52,.44-.38,.91-.67,1.39-.86s.97-.33,1.45-.39c.48-.06,.92-.09,1.33-.09s.82,.03,1.29,.08c.47,.06,.95,.18,1.42,.37,.48,.19,.94,.47,1.39,.84,.45,.37,.85,.88,1.19,1.51s.63,1.43,.83,2.37c.21,.94,.31,2.08,.31,3.42v9.26c0,1.3-.11,2.41-.32,3.34-.22,.93-.5,1.72-.84,2.37s-.75,1.17-1.2,1.56c-.45,.39-.92,.7-1.39,.92-.48,.22-.95,.36-1.42,.44s-.89,.11-1.27,.11Zm0-2.98c.39,0,.73-.07,1.02-.2s.53-.36,.72-.69c.19-.33,.33-.76,.43-1.29s.15-1.21,.15-2.03V11.69c0-.84-.05-1.53-.15-2.1-.1-.56-.24-1.01-.43-1.35s-.43-.58-.72-.73-.63-.21-1.02-.21-.74,.07-1.04,.21-.54,.39-.73,.73-.34,.79-.44,1.35c-.1,.56-.14,1.26-.14,2.1v11.89c0,.82,.05,1.49,.14,2.03,.1,.54,.24,.97,.44,1.29,.19,.33,.44,.56,.73,.69s.64,.2,1.04,.2Z" fill="#2ac989"/><path d="M229.35,30.79c-.31,0-.66-.03-1.07-.1-.41-.07-.83-.21-1.26-.42-.43-.21-.86-.52-1.28-.91-.42-.39-.79-.91-1.13-1.56-.33-.65-.6-1.44-.8-2.39-.2-.94-.31-2.07-.31-3.37V12.77c0-1.32,.11-2.44,.32-3.37,.22-.93,.5-1.72,.86-2.36s.77-1.15,1.23-1.52c.47-.38,.95-.67,1.45-.86s.99-.33,1.48-.39c.49-.06,.94-.09,1.36-.09,1.06,0,1.96,.15,2.69,.44,.73,.29,1.32,.69,1.78,1.19,.45,.5,.78,1.09,.98,1.77,.2,.67,.3,1.39,.3,2.14,0,.56-.03,1.08-.1,1.55-.07,.47-.16,1-.27,1.57h-3.17v-1.24c0-2.87-.77-4.3-2.31-4.3-.42,0-.78,.07-1.09,.21-.31,.14-.56,.39-.77,.73s-.36,.79-.45,1.35c-.1,.56-.15,1.26-.15,2.1v11.84c0,.82,.05,1.49,.15,2.03,.1,.54,.24,.97,.44,1.3,.2,.33,.45,.56,.75,.7,.3,.14,.66,.21,1.08,.21s.82-.12,1.13-.34c.32-.23,.58-.54,.78-.94s.35-.87,.45-1.41c.1-.54,.14-1.13,.14-1.76v-3.41h-2.03v-2.6h5.89v13.24h-2.63l-.43-2.48c-.5,.97-1.07,1.67-1.72,2.09s-1.42,.64-2.3,.64Z" fill="#2ac989"/><path d="M78.37,42.01h3.99v19.16c0,.82,.04,1.49,.12,2.03,.08,.54,.21,.97,.39,1.29s.41,.55,.69,.69,.62,.21,1,.21,.73-.07,1.02-.21c.29-.14,.53-.37,.72-.69s.33-.75,.43-1.29c.1-.54,.15-1.22,.15-2.03v-19.16h3.95v18.1c0,1.28-.1,2.37-.31,3.27s-.47,1.67-.81,2.28c-.34,.61-.72,1.1-1.16,1.45-.43,.36-.88,.63-1.35,.82-.47,.19-.93,.31-1.38,.36-.46,.05-.88,.08-1.26,.08s-.79-.03-1.25-.08-.91-.17-1.37-.36c-.46-.19-.9-.46-1.33-.82-.43-.36-.81-.84-1.15-1.45-.34-.61-.61-1.37-.8-2.27s-.3-2-.3-3.28v-18.1Z" fill="#1b5baf"/><path d="M95.2,42.01h3.96v11.42h.12l4.53-11.42h3.95l-5.05,12.26,5.62,13.88h-4.24l-4.8-12.44h-.12v12.44h-3.96v-26.14Z" fill="#1b5baf"/><path d="M115.89,61.87c0-.87,.14-1.68,.43-2.45,.29-.77,.63-1.47,1.04-2.12,.41-.65,.84-1.23,1.29-1.76,.45-.53,.85-.98,1.18-1.37l.41-.44-.52-.93c-.27-.48-.52-.98-.77-1.51s-.46-1.07-.65-1.63c-.19-.56-.34-1.12-.45-1.7s-.17-1.15-.17-1.72c0-.89,.15-1.69,.46-2.4,.31-.71,.72-1.32,1.24-1.82,.52-.5,1.13-.89,1.83-1.16s1.45-.41,2.25-.41c1.04,0,1.9,.16,2.58,.48,.68,.32,1.22,.71,1.61,1.19s.68,.98,.83,1.53c.16,.55,.24,1.05,.24,1.52,0,.95-.16,1.83-.47,2.64-.31,.81-.68,1.55-1.12,2.22-.43,.67-.89,1.27-1.36,1.79s-.86,.97-1.18,1.34l-.34,.38,3.95,7.18c.17-.56,.31-1.15,.4-1.76,.1-.61,.15-1.24,.15-1.88,0-.34,0-.65-.02-.94,0-.29-.03-.57-.05-.85h3.2c.05,.27,.09,.55,.12,.86,.03,.31,.04,.62,.04,.93,0,1.21-.19,2.4-.58,3.55s-.9,2.22-1.55,3.2l2.39,4.31h-4.1l-.86-1.53c-.73,.56-1.51,1-2.33,1.32-.82,.32-1.65,.48-2.49,.48-.98,0-1.88-.15-2.69-.44-.82-.29-1.52-.71-2.11-1.26-.59-.55-1.05-1.23-1.38-2.04-.33-.81-.49-1.74-.49-2.78Zm3.93-.54c0,.49,.07,.98,.21,1.46,.14,.48,.35,.92,.64,1.3s.66,.69,1.12,.93,.99,.36,1.61,.36c.51,0,.99-.1,1.43-.31,.44-.2,.85-.49,1.23-.86l-4.35-7.83c-.61,.76-1.08,1.57-1.41,2.41s-.49,1.69-.49,2.53Zm3.31-10.68c.2-.23,.44-.51,.7-.83s.51-.67,.74-1.07,.43-.84,.6-1.33,.25-1.02,.25-1.59c0-.39-.05-.72-.16-1.01s-.25-.52-.43-.7-.38-.32-.61-.41c-.23-.09-.47-.14-.73-.14-.23,0-.48,.04-.73,.13s-.49,.23-.7,.44c-.21,.2-.38,.48-.52,.82-.14,.34-.21,.77-.21,1.28,0,.35,.03,.69,.08,1.02s.15,.68,.27,1.06c.12,.37,.28,.77,.48,1.19,.2,.42,.44,.9,.71,1.43l.26-.28Z" fill="#1b5baf"/><path d="M142.52,42.01h9.69v3.12h-5.72v7.82h4.42v3.12h-4.42v8.95h5.88v3.12h-9.84v-26.14Z" fill="#1b5baf"/><path d="M155.13,42.01h3.99v19.16c0,.82,.04,1.49,.12,2.03,.08,.54,.21,.97,.39,1.29s.41,.55,.69,.69,.62,.21,1,.21,.73-.07,1.02-.21c.29-.14,.53-.37,.72-.69s.33-.75,.43-1.29c.1-.54,.15-1.22,.15-2.03v-19.16h3.95v18.1c0,1.28-.1,2.37-.31,3.27s-.47,1.67-.81,2.28c-.34,.61-.72,1.1-1.16,1.45-.43,.36-.88,.63-1.35,.82-.47,.19-.93,.31-1.38,.36-.46,.05-.88,.08-1.26,.08s-.79-.03-1.25-.08-.91-.17-1.37-.36c-.46-.19-.9-.46-1.33-.82-.43-.36-.81-.84-1.15-1.45-.34-.61-.61-1.37-.8-2.27s-.3-2-.3-3.28v-18.1Z" fill="#1b5baf"/></g></g></g></svg>